<svg id="Layer_2_copy" data-name="Layer 2 copy" xmlns="http://www.w3.org/2000/svg" viewBox="0 0 270.75 121.46"><defs><style>.cls-1{fill:#1f1e1e;}.cls-2{fill:#7f6441;}</style></defs><title>The_Bridges_2_colour</title><path class="cls-1" d="M263.24,141.42V139.2l-18.31-2.05L48.36,176.32h5.47l16.37-2.73L69,181.42c-7.85.25-16.26.9-25.41,2.08,114.28-5.31,112.23,41.74,210.42-2.74-5.07,1.81-9.87,3.36-14.53,4.76l-4.85-39.34ZM98.14,169.78l-11,10H85.19l-7.67-6.09-.14-1.3,20.83-3.47Zm-20.35,6.46L84,180.69v.74c-1.86-.06-3.76-.09-5.69-.1Zm10.49,4.68,9.59-8.09L97,182.22c-2.84-.26-5.77-.46-8.76-.61Zm14-12.67.17,0L104,183l-3-.33Zm3.64-.61,16.55-2.76-2.76,20.42c-3.93-.69-8-1.33-12.15-1.89ZM152.41,186,143,177l.15-3.14,11.15-9.43Zm-19.91-6-1.19-11.41,5.45,5.21-.13,2.7Zm22.09-18.68-14,11.81-1.84-.1L131,165.56l-.21-2.07,24-4ZM124.13,186.1l2.92-21.62.35.33,1.86,17.89L125,186.27Zm5.41-.7.18,1.76-1.85-.36Zm3.24-2.74L139,177.4l1.68.09,11.5,11-.26,2.94c-6.19-1.07-12.33-2.3-18.6-3.55Zm26.47-22.48L162.66,193q-3.15-.4-6.24-.89Zm4.34-2.16,20.23-3.37-5.37,39.71c-3.82-.14-7.53-.41-11.16-.79Zm46.78,7.17,14.09-11.75-1.52,24-12.58-9.34Zm14.27-14.53-16,13.33h-3.86l-11.71-8.7-.22-2.15,32-5.33Zm-36.22,3.83,2.52,24.25-6.54,5.45Zm4.93,3.53,9.71,7.22v3.4l-7.92,6.6Zm12.09,11.27h3.09l14.26,10.6-.59,9.33-.08.87a182.48,182.48,0,0,1-25,3.85l-1.69-16.28ZM73.63,173l.29,0,.87,8.34c-.92,0-1.87,0-2.81.05ZM183,194.47l1-7.29,7.19-6,1.36,13.1C189.28,194.45,186.12,194.5,183,194.47Zm51.4-7.46c-2.44.68-4.84,1.33-7.17,1.9l2.95-42,.29,0Z" transform="translate(-17.89 -137.14)"/><path class="cls-2" d="M19.19,223.2H18.07q0-3.83-.18-5.31l6.2.16q3.42.06,4.57.06t5.71-.1q3.24-.06,4.73-.13-.22,1.8-.29,5.31H37.64l-.14-1.54q-.14-1.4-.2-1.59a.53.53,0,0,0-.15-.27.78.78,0,0,0-.3-.13q-.25,0-1.81-.13t-2.46-.08H30.35a37.5,37.5,0,0,0-.18,4.15V233q0,2.18.05,4.25a4.61,4.61,0,0,0,.26,1.81,1.22,1.22,0,0,0,.67.43,14.53,14.53,0,0,0,2.62.17v1q-3.24-.13-4.87-.13-.71,0-5.65.13v-1a14.74,14.74,0,0,0,2.63-.17,1.12,1.12,0,0,0,.63-.38,3.43,3.43,0,0,0,.29-1.56q0-.34.07-4.55v-9.35q0-.67,0-1.48l-.11-2.71H24a33.76,33.76,0,0,0-3.72.16.83.83,0,0,0-.56.21,5.1,5.1,0,0,0-.36,1.75Z" transform="translate(-17.89 -137.14)"/><path class="cls-2" d="M43.52,218.92v-1l5.55.1,5.11-.1v1a14.56,14.56,0,0,0-2.62.17,1.21,1.21,0,0,0-.64.38,3.66,3.66,0,0,0-.27,1.56q0,.32-.07,4.55v2.23q3.57.11,8.7.11,3.93,0,6.29-.11v-2.23q0-2.18-.07-4.27a4.54,4.54,0,0,0-.26-1.8,1.24,1.24,0,0,0-.67-.42,14.56,14.56,0,0,0-2.62-.17v-1q3.9.1,5.35.1l5.29-.1v1a14.59,14.59,0,0,0-2.61.17,1.11,1.11,0,0,0-.63.38A3.39,3.39,0,0,0,69,221q0,.32-.07,4.55V233q0,2.18.07,4.25a4.49,4.49,0,0,0,.24,1.81,1.22,1.22,0,0,0,.68.43,14.59,14.59,0,0,0,2.61.17v1q-3.5-.13-5.73-.13t-4.91.13v-1a14.56,14.56,0,0,0,2.62-.17,1.21,1.21,0,0,0,.64-.38,3.3,3.3,0,0,0,.27-1.55q0-.34.09-4.55v-3.65q-5.07-.1-7.7-.1-2.86,0-7.29.1V233q0,2.18.05,4.24a4.57,4.57,0,0,0,.26,1.81,1.21,1.21,0,0,0,.67.43,14.56,14.56,0,0,0,2.62.17v1q-2.45-.14-5-.14-2.83,0-5.62.14v-1a14.59,14.59,0,0,0,2.61-.17,1.21,1.21,0,0,0,.65-.38,3.64,3.64,0,0,0,.27-1.55q0-.34.07-4.55v-7.42q0-2.18-.05-4.26a4.54,4.54,0,0,0-.26-1.8,1.24,1.24,0,0,0-.67-.42A14.56,14.56,0,0,0,43.52,218.92Z" transform="translate(-17.89 -137.14)"/><path class="cls-2" d="M77.59,240.68v-1a8.34,8.34,0,0,0,2.5-.26.64.64,0,0,0,.36-.3,5.07,5.07,0,0,0,.25-1.68q.11-2.12.11-3.66v-8.2q0-2.18-.05-4.27a4.51,4.51,0,0,0-.26-1.8,1.24,1.24,0,0,0-.67-.42,14.53,14.53,0,0,0-2.62-.17v-1l5.17.1,5.47-.08,5.71,0a30.88,30.88,0,0,1,3.39.18,11.25,11.25,0,0,0-.4,1.59q0,.14-.33,3.34H95.08a15.31,15.31,0,0,0-.24-3,9.09,9.09,0,0,0-2.19-.5,36.89,36.89,0,0,0-4.06-.22l-1.94.06-2.16.11q-.07,1.78-.11,3.34l-.07,5.42q2.12.1,3.9.1a32.64,32.64,0,0,0,3.68-.18,1.18,1.18,0,0,0,.74-.26,3.48,3.48,0,0,0,.29-1.32l.11-1.12h1.09v.3L94,229.05l.09,3.74H92.85l-.05-1.09a3.33,3.33,0,0,0-.24-1.48,1.22,1.22,0,0,0-.79-.4,26.61,26.61,0,0,0-4-.19q-1.21,0-3.44.08-.09,1.6-.09,4.76,0,3,.09,4.51,2.61.18,5.85.18a28.79,28.79,0,0,0,3.28-.13,8.48,8.48,0,0,0,1.81-.43,9.14,9.14,0,0,0,.43-1.35q.4-1.43.53-2.15h1.2a38.62,38.62,0,0,0-.47,5.37,29.18,29.18,0,0,1-3.79.21l-10.82-.13Z" transform="translate(-17.89 -137.14)"/><path class="cls-2" d="M115.82,240.68v-.75a8,8,0,0,0,1.25-.62.86.86,0,0,0,.2-.43,15.28,15.28,0,0,0,.19-2q.08-1.56.08-2.38v-9.67q0-1.57-.11-3.69a5,5,0,0,0-.25-1.65.74.74,0,0,0-.38-.3,8.83,8.83,0,0,0-2.48-.24v-1q.6,0,1.5,0l3.77.08,6.67-.14a13.41,13.41,0,0,1,4.08.48,4.5,4.5,0,0,1,2.24,1.56,3.94,3.94,0,0,1,.81,2.41,4.26,4.26,0,0,1-.48,2,5.25,5.25,0,0,1-1.29,1.61,7.12,7.12,0,0,1-1.79,1.1,14.77,14.77,0,0,1-2.58.78,20.53,20.53,0,0,1,3.43.52,6,6,0,0,1,2.18,1,4.46,4.46,0,0,1,1.33,1.66,5.13,5.13,0,0,1,.45,2.18,6.07,6.07,0,0,1-1.62,4.18,9.66,9.66,0,0,1-4.18,2.67,14.18,14.18,0,0,1-4.51.64l-5.26-.13Q118.21,240.55,115.82,240.68ZM121,227.34q1,0,1.81,0a15.11,15.11,0,0,0,3.46-.3,5.36,5.36,0,0,0,1.89-.8,3.88,3.88,0,0,0,1.11-1.34,4.23,4.23,0,0,0,.44-2,3.14,3.14,0,0,0-1.44-2.89,8.1,8.1,0,0,0-4.2-.89,16.87,16.87,0,0,0-2.91.24,37,37,0,0,0-.16,4.11Zm.05,11.69a13.71,13.71,0,0,0,2.86.29,9.62,9.62,0,0,0,3.85-.65,4.83,4.83,0,0,0,2.25-2,5.76,5.76,0,0,0,.79-3,5.11,5.11,0,0,0-.74-2.83,4.37,4.37,0,0,0-2.22-1.7,15.16,15.16,0,0,0-4.86-.55q-.78,0-2,.06v6.08Q121,235.63,121.05,239Z" transform="translate(-17.89 -137.14)"/><path class="cls-2" d="M140.09,218.92v-1l2.16,0,3.48.08q1,0,3.21-.06l3.28-.1a16.84,16.84,0,0,1,5,.55,4.85,4.85,0,0,1,2.46,1.77,4.54,4.54,0,0,1,.87,2.67,5.07,5.07,0,0,1-.81,2.68,6.41,6.41,0,0,1-2.37,2.21,13.29,13.29,0,0,1-4,1.36q.46.56,2.14,2.5l4.57,5.32c1.31,1.49,2.07,2.31,2.29,2.49a1.09,1.09,0,0,0,.33.16,5.38,5.38,0,0,0,1.19.08v1c-.91-.06-1.72-.1-2.41-.1s-1.59,0-2.63.1q-1.18-1.2-4-4.7-1.54-1.94-2.72-3.24-1.9-2.15-3.62-3.9l.18-.48q.94,0,1.43,0a7.81,7.81,0,0,0,5-1.38,4.46,4.46,0,0,0,1.7-3.64,3.79,3.79,0,0,0-1.46-3.14,7.08,7.08,0,0,0-4.44-1.16,13.65,13.65,0,0,0-3.66.5q-.07.87-.11,1.62,0,.22-.13,4.67V233q0,2.18.07,4.25a4.49,4.49,0,0,0,.24,1.81,1.22,1.22,0,0,0,.68.43,14.57,14.57,0,0,0,2.61.17v1q-2.57-.13-4.73-.13-1.74,0-5.85.13v-1a14.59,14.59,0,0,0,2.61-.17,1.21,1.21,0,0,0,.65-.38,3.68,3.68,0,0,0,.27-1.56q0-.34.07-4.55v-7.43q0-2.18-.05-4.27a4.51,4.51,0,0,0-.26-1.8,1.24,1.24,0,0,0-.67-.42A14.56,14.56,0,0,0,140.09,218.92Z" transform="translate(-17.89 -137.14)"/><path class="cls-2" d="M178.38,239.65v1q-3.86-.13-5.07-.13l-5.6.13v-1a14.59,14.59,0,0,0,2.61-.17,1.22,1.22,0,0,0,.65-.38,3.69,3.69,0,0,0,.27-1.56q0-.34.07-4.55v-7.43q0-2.18-.05-4.27a4.52,4.52,0,0,0-.26-1.8,1.23,1.23,0,0,0-.67-.42,14.51,14.51,0,0,0-2.62-.17v-1q3.46.11,5.35.11t5.33-.11v1a14.58,14.58,0,0,0-2.62.17,1.2,1.2,0,0,0-.64.38,3.65,3.65,0,0,0-.27,1.56q0,.32-.07,4.55V233q0,2.18.05,4.25a4.55,4.55,0,0,0,.26,1.81,1.2,1.2,0,0,0,.67.43A14.58,14.58,0,0,0,178.38,239.65Z" transform="translate(-17.89 -137.14)"/><path class="cls-2" d="M183.78,240.68v-.77c.7-.35,1.29-.67,1.76-1q.11-1.09.18-3,.12-3.3.13-4.59v-6.54q0-1.57-.11-3.69a5,5,0,0,0-.25-1.65.74.74,0,0,0-.38-.3,8.83,8.83,0,0,0-2.48-.24v-1q2.65.1,4.68.1,1.56,0,4.25-.06t4.18-.06a21,21,0,0,1,7.14,1,10.46,10.46,0,0,1,4.58,3.36,8.93,8.93,0,0,1,1.88,5.76,11.8,11.8,0,0,1-.89,4.57,12.07,12.07,0,0,1-2.41,3.73,13,13,0,0,1-3.26,2.53,15.74,15.74,0,0,1-3.65,1.4,22.82,22.82,0,0,1-5.24.47q-1.11,0-3-.06-2.47-.06-3.23-.06Q186.55,240.55,183.78,240.68Zm5.62-1.75a27.81,27.81,0,0,0,4.2.3,20.59,20.59,0,0,0,4-.35,11.42,11.42,0,0,0,3-1A8.9,8.9,0,0,0,203,236a8.41,8.41,0,0,0,1.78-3.2,13.12,13.12,0,0,0,.63-4,10.28,10.28,0,0,0-1.21-5.12,7.84,7.84,0,0,0-3.63-3.28,16,16,0,0,0-6.67-1.14,34.49,34.49,0,0,0-4.53.3q-.06.79-.09,2.79l-.07,2.33V231l.05,5C189.3,236.77,189.33,237.74,189.39,238.93Z" transform="translate(-17.89 -137.14)"/><path class="cls-2" d="M239.46,239.43a31.63,31.63,0,0,1-10.38,1.72,18.16,18.16,0,0,1-7.45-1.45,11.63,11.63,0,0,1-5-4.07,10.72,10.72,0,0,1-1.77-6.17,10.42,10.42,0,0,1,1.27-5.32,11.71,11.71,0,0,1,3.18-3.6,14.68,14.68,0,0,1,3.81-2.08,21.92,21.92,0,0,1,7.21-1,25.47,25.47,0,0,1,4.23.41q2.22.39,5,1.08a11.84,11.84,0,0,0-.42,1.6q-.14.79-.38,3.22h-1.11l-.09-1.83c0-.28,0-.5,0-.67a1.68,1.68,0,0,0-.24-.66,4.22,4.22,0,0,0-1.56-1,21.31,21.31,0,0,0-3.05-.83,17.13,17.13,0,0,0-2.87-.21,12.84,12.84,0,0,0-6,1.3,8.76,8.76,0,0,0-3.82,3.72,11,11,0,0,0-1.29,5.29,10.86,10.86,0,0,0,1.51,5.69,10.2,10.2,0,0,0,4.07,3.87,12.58,12.58,0,0,0,5.94,1.34,17.25,17.25,0,0,0,3.1-.27,10.51,10.51,0,0,0,2.53-.75,9.31,9.31,0,0,0,.16-2.05v-1.78a4.46,4.46,0,0,0-.16-1.65,1.37,1.37,0,0,0-.88-.36,31.3,31.3,0,0,0-3.29-.18v-1l5.65.11q1.65,0,3.37-.11l.11.77-1.36.71a24.91,24.91,0,0,0-.22,3.16A24.18,24.18,0,0,0,239.46,239.43Z" transform="translate(-17.89 -137.14)"/><path class="cls-2" d="M246.05,240.68v-1a8.35,8.35,0,0,0,2.5-.26.65.65,0,0,0,.36-.3,5.15,5.15,0,0,0,.25-1.68q.11-2.12.11-3.66v-8.2q0-2.18-.05-4.27a4.6,4.6,0,0,0-.26-1.8,1.24,1.24,0,0,0-.67-.42,14.58,14.58,0,0,0-2.62-.17v-1l5.16.1,5.47-.08,5.71,0a30.82,30.82,0,0,1,3.39.18,11.44,11.44,0,0,0-.4,1.59q0,.14-.33,3.34h-1.14a15.21,15.21,0,0,0-.24-3,9.11,9.11,0,0,0-2.19-.5,37,37,0,0,0-4.06-.22l-1.94.06-2.15.11q-.08,1.78-.11,3.34l-.07,5.42q2.12.1,3.89.1a32.66,32.66,0,0,0,3.68-.18,1.18,1.18,0,0,0,.74-.26,3.47,3.47,0,0,0,.29-1.32l.11-1.12h1.09v.3l-.09,3.34.09,3.74h-1.27l-.05-1.09a3.28,3.28,0,0,0-.25-1.48,1.22,1.22,0,0,0-.79-.4,26.56,26.56,0,0,0-4-.19q-1.21,0-3.44.08-.09,1.6-.09,4.76,0,3,.09,4.51,2.61.18,5.85.18a28.76,28.76,0,0,0,3.28-.13,8.48,8.48,0,0,0,1.81-.43,9.45,9.45,0,0,0,.44-1.35c.26-1,.44-1.67.52-2.15h1.2a38.48,38.48,0,0,0-.47,5.37,29.15,29.15,0,0,1-3.79.21l-10.82-.13Z" transform="translate(-17.89 -137.14)"/><path class="cls-2" d="M271.4,239.89a33.2,33.2,0,0,0,.34-5H273a10.62,10.62,0,0,0,.3,2.77,2.57,2.57,0,0,0,1,.91,8.8,8.8,0,0,0,2.14.86,9.55,9.55,0,0,0,2.59.38,7.63,7.63,0,0,0,3.37-.75,4.89,4.89,0,0,0,3-4.55,4.36,4.36,0,0,0-.36-1.83,2.9,2.9,0,0,0-1.08-1.24,4.83,4.83,0,0,0-1.79-.67c-.45-.06-1.34-.17-2.68-.32s-2.48-.32-3.42-.5a8.12,8.12,0,0,1-2.77-1.2,5.12,5.12,0,0,1-1.44-1.81,5.44,5.44,0,0,1-.55-2.42,6.33,6.33,0,0,1,1.11-3.57,7.22,7.22,0,0,1,3.3-2.61,12,12,0,0,1,4.74-.93,17.19,17.19,0,0,1,3.36.37,16.29,16.29,0,0,1,3.4,1.06,15.36,15.36,0,0,0-.36,1.88c-.07.58-.13,1.44-.16,2.57h-1.23a16.11,16.11,0,0,0-.16-2.69,4.43,4.43,0,0,0-1.23-1,8.64,8.64,0,0,0-3.9-.93,6,6,0,0,0-4.19,1.42,4.73,4.73,0,0,0-1.57,3.68,3.45,3.45,0,0,0,.56,2.11,3.89,3.89,0,0,0,2,1.19,20.51,20.51,0,0,0,3.26.57q2.27.26,4.08.57a7.37,7.37,0,0,1,2.52,1.07,4.75,4.75,0,0,1,1.34,1.62,5,5,0,0,1,.52,2.35,7,7,0,0,1-3,5.56,12.09,12.09,0,0,1-7.74,2.37A16.34,16.34,0,0,1,271.4,239.89Z" transform="translate(-17.89 -137.14)"/><path class="cls-2" d="M74.82,258.47l3-7.84h1.12l3.21,7.84H81l-.91-2.37H76.78l-.86,2.37Zm2.26-3.22h2.66l-.82-2.17c-.25-.66-.43-1.2-.56-1.63a10,10,0,0,1-.42,1.5Z" transform="translate(-17.89 -137.14)"/><path class="cls-2" d="M89.09,258.47v-6.91H86.51v-.92h6.21v.92H90.12v6.91Z" transform="translate(-17.89 -137.14)"/><path class="cls-2" d="M108.28,258.47v-6.91h-2.58v-.92h6.21v.92h-2.59v6.91Z" transform="translate(-17.89 -137.14)"/><path class="cls-2" d="M118.07,258.47v-7.84h1v7.84Z" transform="translate(-17.89 -137.14)"/><path class="cls-2" d="M125.82,258.47v-7.84h1v6.91h3.86v.92Z" transform="translate(-17.89 -137.14)"/><path class="cls-2" d="M136.84,258.47v-7.84h1v6.91h3.86v.92Z" transform="translate(-17.89 -137.14)"/><path class="cls-2" d="M147.55,256l1-.09a2.16,2.16,0,0,0,.32,1,1.77,1.77,0,0,0,.79.61,3,3,0,0,0,1.2.23,2.88,2.88,0,0,0,1-.18,1.46,1.46,0,0,0,.68-.48,1.13,1.13,0,0,0,.22-.67,1,1,0,0,0-.21-.64,1.58,1.58,0,0,0-.7-.46,13.72,13.72,0,0,0-1.4-.38,7.23,7.23,0,0,1-1.51-.49,2.1,2.1,0,0,1-.84-.73,1.79,1.79,0,0,1-.28-1,2,2,0,0,1,.34-1.11,2.08,2.08,0,0,1,1-.78,3.72,3.72,0,0,1,1.44-.27,3.93,3.93,0,0,1,1.54.28,2.2,2.2,0,0,1,1,.83,2.34,2.34,0,0,1,.38,1.23l-1,.07a1.6,1.6,0,0,0-.54-1.12,2.11,2.11,0,0,0-1.37-.38,2.19,2.19,0,0,0-1.37.34,1,1,0,0,0-.43.83.89.89,0,0,0,.3.69,4.11,4.11,0,0,0,1.56.56,10.34,10.34,0,0,1,1.73.5,2.37,2.37,0,0,1,1,.8,1.94,1.94,0,0,1,.33,1.11,2.12,2.12,0,0,1-.36,1.18,2.35,2.35,0,0,1-1,.86,3.57,3.57,0,0,1-1.51.31,4.53,4.53,0,0,1-1.78-.31,2.49,2.49,0,0,1-1.13-.93A2.65,2.65,0,0,1,147.55,256Z" transform="translate(-17.89 -137.14)"/><path class="cls-2" d="M159.81,254.65a4.26,4.26,0,0,1,1-3.06,3.57,3.57,0,0,1,2.71-1.1,3.76,3.76,0,0,1,2,.52,3.39,3.39,0,0,1,1.33,1.45,4.7,4.7,0,0,1,.46,2.1,4.62,4.62,0,0,1-.48,2.13,3.28,3.28,0,0,1-1.36,1.42,3.88,3.88,0,0,1-1.9.48,3.71,3.71,0,0,1-2-.53,3.44,3.44,0,0,1-1.32-1.46A4.43,4.43,0,0,1,159.81,254.65Zm1.07,0a3.14,3.14,0,0,0,.76,2.23,2.66,2.66,0,0,0,3.84,0,3.32,3.32,0,0,0,.76-2.34,4,4,0,0,0-.32-1.67,2.5,2.5,0,0,0-.95-1.11,2.57,2.57,0,0,0-1.4-.39,2.65,2.65,0,0,0-1.9.76A3.38,3.38,0,0,0,160.88,254.67Z" transform="translate(-17.89 -137.14)"/><path class="cls-2" d="M173.56,258.47v-7.84h1.06l4.12,6.15v-6.15h1v7.84h-1.06l-4.12-6.16v6.16Z" transform="translate(-17.89 -137.14)"/><path class="cls-2" d="M186.36,258.47v-7.84h2.94a3.65,3.65,0,0,1,1.44.24,1.86,1.86,0,0,1,.85.73,1.92,1.92,0,0,1,.31,1,1.78,1.78,0,0,1-.27.95,2,2,0,0,1-.82.72,2.05,2.05,0,0,1,1.09.71,1.91,1.91,0,0,1,.38,1.19,2.29,2.29,0,0,1-.23,1,2,2,0,0,1-.57.73,2.4,2.4,0,0,1-.86.39,5.17,5.17,0,0,1-1.26.13Zm1-4.54h1.69a3.75,3.75,0,0,0,1-.09,1.09,1.09,0,0,0,.6-.39,1.12,1.12,0,0,0,.2-.68,1.25,1.25,0,0,0-.19-.69.94.94,0,0,0-.53-.41,4.5,4.5,0,0,0-1.19-.11H187.4Zm0,3.62h2a4.62,4.62,0,0,0,.71,0,1.72,1.72,0,0,0,.6-.21,1.14,1.14,0,0,0,.4-.44,1.35,1.35,0,0,0,.16-.66,1.31,1.31,0,0,0-.22-.76,1.19,1.19,0,0,0-.62-.45,3.82,3.82,0,0,0-1.15-.13H187.4Z" transform="translate(-17.89 -137.14)"/><path class="cls-2" d="M203.78,250.63h1v4.53a5.33,5.33,0,0,1-.27,1.88,2.3,2.3,0,0,1-1,1.13,3.41,3.41,0,0,1-1.83.44,3.75,3.75,0,0,1-1.8-.38,2.17,2.17,0,0,1-1-1.1,5.21,5.21,0,0,1-.3-2v-4.53h1v4.52a4.43,4.43,0,0,0,.19,1.5,1.43,1.43,0,0,0,.65.75,2.27,2.27,0,0,0,1.13.26,2.16,2.16,0,0,0,1.63-.52,3,3,0,0,0,.49-2Z" transform="translate(-17.89 -137.14)"/><path class="cls-2" d="M211.49,258.47v-7.84H215a4.61,4.61,0,0,1,1.59.21,1.75,1.75,0,0,1,.87.75,2.23,2.23,0,0,1,.33,1.18,2,2,0,0,1-.54,1.41,2.74,2.74,0,0,1-1.67.73,2.62,2.62,0,0,1,.63.39,5.39,5.39,0,0,1,.86,1l1.36,2.13h-1.3l-1-1.63c-.3-.47-.55-.83-.75-1.08a2.33,2.33,0,0,0-.53-.52,1.6,1.6,0,0,0-.47-.21,3.2,3.2,0,0,0-.58,0h-1.2v3.48Zm1-4.38h2.23a3.32,3.32,0,0,0,1.11-.15,1.18,1.18,0,0,0,.61-.47,1.27,1.27,0,0,0,.21-.7,1.16,1.16,0,0,0-.4-.91,1.9,1.9,0,0,0-1.28-.36h-2.48Z" transform="translate(-17.89 -137.14)"/><path class="cls-2" d="M228,255.4v-.92h3.32v2.91a5.89,5.89,0,0,1-1.58.92,4.67,4.67,0,0,1-1.67.31,4.46,4.46,0,0,1-2.1-.49,3.27,3.27,0,0,1-1.42-1.43,4.5,4.5,0,0,1-.48-2.09,4.86,4.86,0,0,1,.48-2.14A3.18,3.18,0,0,1,225.9,251a4.31,4.31,0,0,1,2.07-.48,4.08,4.08,0,0,1,1.54.28,2.55,2.55,0,0,1,1.08.77,3.44,3.44,0,0,1,.59,1.28l-.94.26a2.91,2.91,0,0,0-.44-.94,1.8,1.8,0,0,0-.75-.55,2.76,2.76,0,0,0-1.08-.21,3.18,3.18,0,0,0-1.23.22,2.29,2.29,0,0,0-.84.57,2.75,2.75,0,0,0-.49.78,4.08,4.08,0,0,0-.3,1.58,3.83,3.83,0,0,0,.36,1.75,2.31,2.31,0,0,0,1.05,1,3.27,3.27,0,0,0,1.46.34,3.83,3.83,0,0,0,2.29-.81V255.4Z" transform="translate(-17.89 -137.14)"/></svg>